<svg xmlns="http://www.w3.org/2000/svg" viewBox="0 0 400 300" fill="none">
  <!-- Background -->
  <defs>
    <linearGradient id="characterBg" x1="0%" y1="0%" x2="100%" y2="100%">
      <stop offset="0%" style="stop-color:#7C2D12;stop-opacity:1" />
      <stop offset="50%" style="stop-color:#A16207;stop-opacity:1" />
      <stop offset="100%" style="stop-color:#CA8A04;stop-opacity:1" />
    </linearGradient>
    <radialGradient id="warmGlow" cx="50%" cy="50%" r="60%">
      <stop offset="0%" style="stop-color:#D4AF37;stop-opacity:0.4" />
      <stop offset="100%" style="stop-color:#D4AF37;stop-opacity:0" />
    </radialGradient>
  </defs>
  
  <!-- Background -->
  <rect width="400" height="300" fill="url(#characterBg)"/>
  <circle cx="200" cy="150" r="120" fill="url(#warmGlow)"/>
  
  <!-- Character silhouette -->
  <g transform="translate(200,150)">
    <!-- Head -->
    <circle cx="0" cy="-40" r="20" fill="#2D1B0E" opacity="0.8"/>
    
    <!-- Body -->
    <rect x="-12" y="-20" width="24" height="40" fill="#2D1B0E" opacity="0.8" rx="2"/>
    
    <!-- Arms in dynamic pose -->
    <rect x="-25" y="-15" width="15" height="6" fill="#2D1B0E" opacity="0.8" rx="3" 
          transform="rotate(-20)"/>
    <rect x="10" y="-15" width="15" height="6" fill="#2D1B0E" opacity="0.8" rx="3" 
          transform="rotate(30)"/>
    
    <!-- Legs -->
    <rect x="-8" y="20" width="6" height="25" fill="#2D1B0E" opacity="0.8" rx="3"/>
    <rect x="2" y="20" width="6" height="25" fill="#2D1B0E" opacity="0.8" rx="3"/>
  </g>
  
  <!-- Art tools scattered around -->
  <g opacity="0.7">
    <!-- Paintbrush -->
    <g transform="translate(100,80) rotate(30)">
      <rect x="0" y="0" width="2" height="20" fill="#8B4513"/>
      <ellipse cx="1" cy="-3" rx="3" ry="1.5" fill="#D4AF37"/>
    </g>
    
    <!-- Pencil -->
    <g transform="translate(320,100) rotate(-45)">
      <rect x="0" y="0" width="2" height="18" fill="#FCD34D"/>
      <polygon points="0,0 1,-2 2,0" fill="#EC4899"/>
    </g>
    
    <!-- Palette -->
    <g transform="translate(120,220)">
      <ellipse cx="0" cy="0" rx="12" ry="8" fill="#F3F4F6" opacity="0.9"/>
      <circle cx="-4" cy="-2" r="2" fill="#EF4444"/>
      <circle cx="3" cy="-1" r="2" fill="#3B82F6"/>
      <circle cx="0" cy="3" r="2" fill="#D4AF37"/>
    </g>
  </g>
  
  <!-- Creative energy lines -->
  <g opacity="0.5">
    <path d="M50,50 Q150,100 250,80" stroke="#D4AF37" stroke-width="1" fill="none"/>
    <path d="M350,250 Q250,200 150,220" stroke="#F59E0B" stroke-width="1" fill="none"/>
  </g>
</svg>