<svg xmlns="http://www.w3.org/2000/svg" viewBox="0 0 400 300" fill="none">
  <!-- Background -->
  <defs>
    <linearGradient id="scifiBg" x1="0%" y1="0%" x2="100%" y2="100%">
      <stop offset="0%" style="stop-color:#0F172A;stop-opacity:1" />
      <stop offset="50%" style="stop-color:#1E293B;stop-opacity:1" />
      <stop offset="100%" style="stop-color:#334155;stop-opacity:1" />
    </linearGradient>
    <linearGradient id="interface" x1="0%" y1="0%" x2="100%" y2="0%">
      <stop offset="0%" style="stop-color:#06B6D4;stop-opacity:0" />
      <stop offset="50%" style="stop-color:#06B6D4;stop-opacity:1" />
      <stop offset="100%" style="stop-color:#06B6D4;stop-opacity:0" />
    </linearGradient>
  </defs>
  
  <!-- Background -->
  <rect width="400" height="300" fill="url(#scifiBg)"/>
  
  <!-- Futuristic geometric shapes -->
  <g transform="translate(200,150)">
    <!-- Central hexagon -->
    <polygon points="0,-40 35,-20 35,20 0,40 -35,20 -35,-20" 
             fill="none" stroke="#06B6D4" stroke-width="2" opacity="0.8"/>
    
    <!-- Inner elements -->
    <circle cx="0" cy="0" r="15" fill="none" stroke="#00D9FF" stroke-width="1"/>
    <circle cx="0" cy="0" r="8" fill="#D4AF37" opacity="0.9"/>
    
    <!-- Corner elements -->
    <rect x="-60" y="-60" width="20" height="20" fill="none" stroke="#06B6D4" stroke-width="1"/>
    <rect x="40" y="-60" width="20" height="20" fill="none" stroke="#06B6D4" stroke-width="1"/>
    <rect x="-60" y="40" width="20" height="20" fill="none" stroke="#06B6D4" stroke-width="1"/>
    <rect x="40" y="40" width="20" height="20" fill="none" stroke="#06B6D4" stroke-width="1"/>
  </g>
  
  <!-- Interface lines -->
  <line x1="50" y1="100" x2="150" y2="100" stroke="url(#interface)" stroke-width="1"/>
  <line x1="250" y1="100" x2="350" y2="100" stroke="url(#interface)" stroke-width="1"/>
  <line x1="50" y1="200" x2="150" y2="200" stroke="url(#interface)" stroke-width="1"/>
  <line x1="250" y1="200" x2="350" y2="200" stroke="url(#interface)" stroke-width="1"/>
  
  <!-- Tech nodes -->
  <circle cx="80" cy="80" r="3" fill="#00D9FF"/>
  <circle cx="320" cy="80" r="3" fill="#00D9FF"/>
  <circle cx="80" cy="220" r="3" fill="#00D9FF"/>
  <circle cx="320" cy="220" r="3" fill="#00D9FF"/>
  
  <!-- Data flow indicators -->
  <g opacity="0.6">
    <rect x="100" y="98" width="8" height="4" fill="#06B6D4">
      <animate attributeName="x" values="100;140;100" dur="2s" repeatCount="indefinite"/>
    </rect>
    <rect x="310" y="198" width="8" height="4" fill="#06B6D4">
      <animate attributeName="x" values="310;270;310" dur="2s" repeatCount="indefinite"/>
    </rect>
  </g>
</svg>