<svg xmlns="http://www.w3.org/2000/svg" viewBox="0 0 400 300" fill="none">
  <!-- Dragon Warrior Character -->
  <defs>
    <linearGradient id="dragonBg" x1="0%" y1="0%" x2="100%" y2="100%">
      <stop offset="0%" style="stop-color:#7F1D1D;stop-opacity:1" />
      <stop offset="50%" style="stop-color:#B91C1C;stop-opacity:1" />
      <stop offset="100%" style="stop-color:#DC2626;stop-opacity:1" />
    </linearGradient>
    <radialGradient id="fireGlow" cx="50%" cy="50%" r="60%">
      <stop offset="0%" style="stop-color:#F59E0B;stop-opacity:0.6" />
      <stop offset="100%" style="stop-color:#F59E0B;stop-opacity:0" />
    </radialGradient>
  </defs>
  
  <!-- Background -->
  <rect width="400" height="300" fill="url(#dragonBg)"/>
  <circle cx="200" cy="150" r="140" fill="url(#fireGlow)"/>
  
  <!-- Dragon Warrior silhouette -->
  <g transform="translate(200,150)">
    <!-- Head with helm -->
    <circle cx="0" cy="-60" r="25" fill="#1F2937"/>
    <polygon points="-15,-80 0,-90 15,-80 10,-70 -10,-70" fill="#374151"/> <!-- Helm crest -->
    
    <!-- Horns -->
    <polygon points="-20,-75 -25,-85 -18,-82" fill="#D4AF37"/>
    <polygon points="20,-75 25,-85 18,-82" fill="#D4AF37"/>
    
    <!-- Body armor -->
    <rect x="-20" y="-35" width="40" height="50" fill="#374151" rx="5"/>
    <!-- Armor details -->
    <rect x="-15" y="-30" width="30" height="3" fill="#D4AF37"/>
    <rect x="-10" y="-20" width="20" height="2" fill="#D4AF37"/>
    
    <!-- Arms with gauntlets -->
    <rect x="-35" y="-25" width="18" height="8" fill="#374151" rx="4" transform="rotate(-20)"/>
    <rect x="17" y="-25" width="18" height="8" fill="#374151" rx="4" transform="rotate(20)"/>
    
    <!-- Weapon (sword) -->
    <g transform="rotate(-30)">
      <rect x="25" y="-3" width="40" height="4" fill="#C0C0C0"/>
      <rect x="20" y="-6" width="8" height="10" fill="#8B4513"/>
      <circle cx="68" cy="-1" r="3" fill="#D4AF37"/>
    </g>
    
    <!-- Legs -->
    <rect x="-12" y="15" width="10" height="35" fill="#1F2937" rx="5"/>
    <rect x="2" y="15" width="10" height="35" fill="#1F2937" rx="5"/>
    
    <!-- Cape -->
    <path d="M-25,-30 Q-40,-20 -35,20 Q-20,40 -15,20 Q-20,-10 -25,-30" fill="#7F1D1D" opacity="0.8"/>
  </g>
  
  <!-- Dragon elements -->
  <g opacity="0.6">
    <!-- Dragon wing suggestion -->
    <path d="M50,80 Q30,120 60,160 Q90,140 80,100 Q65,85 50,80" fill="#1F2937" opacity="0.5"/>
    <path d="M350,80 Q370,120 340,160 Q310,140 320,100 Q335,85 350,80" fill="#1F2937" opacity="0.5"/>
  </g>
  
  <!-- Fire effects -->
  <g opacity="0.7">
    <ellipse cx="120" cy="100" rx="8" ry="4" fill="#F59E0B">
      <animate attributeName="ry" values="4;8;4" dur="1.5s" repeatCount="indefinite"/>
    </ellipse>
    <ellipse cx="280" cy="120" rx="6" ry="3" fill="#DC2626">
      <animate attributeName="ry" values="3;6;3" dur="1.8s" repeatCount="indefinite"/>
    </ellipse>
  </g>
</svg>